# xmcd
#
# Track frame offsets: 
#        150
#        17483
#        32137
#        44207
#        60640
#        70675
#        86597
#        100885
#        112580
#        127664
#        145700
#        159250
#
# Disc length: 2321 seconds
#
# Revision: 1
# Processed by: cddbd v1.5.2PL0 Copyright (c) Steve Scherf et al.
# Submitted via: ExactAudioCopyFreeDBPlugin 1.0
#
DISCID=8e090f0c
DTITLE=Dolly Parton - Greatest Hits [CD 3)
DYEAR=2008
DGENRE=Country
TTITLE0=Great Balls of Fire
TTITLE1=Almost in Love
TTITLE2=To Daddy
TTITLE3=She Don't Love You (Like I Love You)
TTITLE4=Travelling Man
TTITLE5=Heartbreaker
TTITLE6=I Really Got the Feeling
TTITLE7=The Last Thing on My Mind
TTITLE8=Tie Our Love (in a Double Knot)
TTITLE9=Do I Ever Cross Your Mind
TTITLE10=I Really Don't Want to Know
TTITLE11=We'll Sing in the Sunshine
EXTD=
EXTT0=
EXTT1=
EXTT2=
EXTT3=
EXTT4=
EXTT5=
EXTT6=
EXTT7=
EXTT8=
EXTT9=
EXTT10=
EXTT11=
PLAYORDER=
